<svg width="608" height="666" viewBox="0 0 608 666" fill="none" xmlns="http://www.w3.org/2000/svg">
<path d="M138.925 665.374C215.651 665.374 277.849 603.175 277.849 526.449C277.849 449.723 215.651 387.524 138.925 387.524C62.1987 387.524 0 449.723 0 526.449C0 603.175 62.1987 665.374 138.925 665.374Z" fill="#E7EEFB"/>
<path d="M306.979 588.069C239.068 588.069 173.258 564.522 120.761 521.44C68.2655 478.358 32.3316 418.407 19.0827 351.8C5.83376 285.194 16.0895 216.055 48.1024 156.163C80.1152 96.2706 131.905 49.3313 194.646 23.3428C257.388 -2.6457 327.199 -6.07543 392.186 13.638C457.173 33.3514 513.314 74.9883 551.043 131.454C588.773 187.92 605.756 255.721 599.099 323.305C592.443 390.889 562.559 454.074 514.538 502.095C487.345 529.437 454.998 551.115 419.37 565.872C383.743 580.63 345.542 588.174 306.979 588.069V588.069ZM306.979 3.24072C146.359 3.24072 15.685 133.914 15.685 294.534C15.685 455.154 146.359 585.828 306.979 585.828C467.598 585.828 598.272 455.154 598.272 294.534C598.272 133.914 467.598 3.24072 306.979 3.24072V3.24072Z" fill="#262C36"/>
<path d="M459.908 387.443L459.875 387.46L315.201 468.019L156.779 388.808L154.049 387.443L162.271 223.003L305.334 121.05L306.913 122.037L454.975 214.781L459.908 387.443Z" fill="#1BB385"/>
<path opacity="0.3" d="M459.875 387.46L315.201 468.019L156.779 388.808L297.112 290.424L459.875 387.46Z" fill="black"/>
<path opacity="0.1" d="M459.908 387.443L297.112 290.424L306.913 122.037L454.975 214.781L459.908 387.443Z" fill="black"/>
<path d="M160.165 273.745L159.361 272.607L304.021 170.5L456.834 266.309L456.094 267.49L304.066 172.173L160.165 273.745Z" fill="#F2F2F2"/>
<path d="M157.361 329.61L156.579 328.458L300.505 230.743L300.882 230.957L456.963 319.417L456.275 320.629L300.571 232.382L157.361 329.61Z" fill="#F2F2F2"/>
<path d="M212.276 416.965L211.542 415.781L356.595 325.9V153.594H357.988V326.676L212.276 416.965Z" fill="#F2F2F2"/>
<path d="M269.209 445.428L268.469 444.248L408.138 356.645V185.879H409.531V357.416L269.209 445.428Z" fill="#F2F2F2"/>
<path d="M407.612 416.982L245.176 326.73L245.199 326.296L253.75 157.281L255.141 157.352L246.612 325.933L408.289 415.764L407.612 416.982Z" fill="#F2F2F2"/>
<path d="M356.507 445.455L195.895 361.288L195.92 360.841L205.388 191.742L206.779 191.82L197.337 360.471L357.154 444.221L356.507 445.455Z" fill="#F2F2F2"/>
<path d="M487.356 120.879C518.294 120.879 543.374 95.7987 543.374 64.8608C543.374 33.9229 518.294 8.84279 487.356 8.84279C456.418 8.84279 431.338 33.9229 431.338 64.8608C431.338 95.7987 456.418 120.879 487.356 120.879Z" fill="#515176"/>
<path d="M607.245 663.133H32.4902V665.374H607.245V663.133Z" fill="#262C36"/>
</svg>
