<svg width="21" height="22" viewBox="0 0 21 22" fill="none" xmlns="http://www.w3.org/2000/svg">
<path d="M10.24 21.3388C4.59712 21.3388 0 16.7416 0 11.0988C0 5.45588 4.59712 0.858765 10.24 0.858765C15.8829 0.858765 20.48 5.45588 20.48 11.0988C20.48 16.7416 15.8829 21.3388 10.24 21.3388ZM18.8768 12.4991C18.5773 12.405 16.1702 11.6856 13.4266 12.1253C14.5702 15.269 15.0368 17.829 15.127 18.3621C16.1192 17.6926 16.9638 16.827 17.6087 15.8187C18.2536 14.8103 18.6852 13.6806 18.8768 12.4991V12.4991ZM13.657 19.1621C13.527 18.396 13.017 15.7221 11.7901 12.5324L11.7338 12.5484C6.7936 14.2687 5.0272 17.692 4.8736 18.012C6.40478 19.2118 8.29477 19.8621 10.24 19.8584C11.4502 19.8584 12.6035 19.612 13.6531 19.1647L13.657 19.1621ZM3.74336 16.9618C3.93984 16.6188 6.33984 12.6482 10.8531 11.1884C10.9664 11.1493 11.0829 11.116 11.1962 11.0853C10.9742 10.5842 10.7375 10.0896 10.4864 9.60244C6.11968 10.9055 1.88288 10.8524 1.50016 10.8421L1.49696 11.109C1.49696 13.356 2.34688 15.4092 3.744 16.9586L3.74336 16.9618ZM1.6768 9.31892C2.0704 9.32596 5.67296 9.34196 9.7632 8.25588C8.7733 6.51241 7.6908 4.82316 6.52032 3.1954C5.29574 3.77304 4.22134 4.62606 3.38111 5.68778C2.54087 6.74951 1.95757 7.99118 1.6768 9.31572V9.31892ZM8.19392 2.60916C8.43392 2.9362 10.0237 5.09556 11.4534 7.72916C14.5632 6.56628 15.8829 4.7954 16.0403 4.57268C14.4445 3.14801 12.3792 2.36225 10.24 2.36596C9.55069 2.36475 8.86374 2.44641 8.19392 2.60916V2.60916ZM17.0106 5.58196C16.8269 5.82836 15.36 7.70868 12.1267 9.02836C12.3296 9.4482 12.5267 9.86868 12.7072 10.2981C12.777 10.4517 12.8333 10.6053 12.8934 10.7487C15.8042 10.382 18.697 10.972 18.9869 11.0322C18.9744 9.04422 18.2786 7.121 17.0163 5.58516L17.0106 5.58196Z" fill="white"/>
</svg>
