<svg width="21" height="22" viewBox="0 0 21 22" fill="none" xmlns="http://www.w3.org/2000/svg">
<path d="M5.92015 4.70197C6.52047 4.70197 7.06319 4.75189 7.56047 4.86197C8.05071 4.97205 8.47375 5.14229 8.82703 5.38229C9.17711 5.62228 9.45039 5.93588 9.64687 6.33908C9.83695 6.73908 9.93679 7.23572 9.93679 7.81556C9.93679 8.44532 9.79023 8.97588 9.50351 9.40212C9.21359 9.829 8.78991 10.1688 8.22031 10.4421C8.99343 10.6655 9.56687 11.0552 9.94703 11.612C10.3304 12.1752 10.5134 12.8485 10.5134 13.6255C10.5134 14.2655 10.4034 14.812 10.1634 15.2722C9.93291 15.732 9.5929 16.1281 9.17327 16.4255C8.76303 16.7224 8.27663 16.9356 7.74991 17.0789C7.21841 17.2224 6.67035 17.2953 6.11983 17.2959H-0.000488281V4.70901H5.91951L5.92015 4.70197ZM14.4571 15.0789C14.8302 15.4456 15.3704 15.6287 16.0738 15.6287C16.5768 15.6287 17.0107 15.502 17.3768 15.2453C17.7403 14.9989 17.9566 14.725 18.0437 14.4453H20.2504C19.9074 15.5352 19.357 16.3218 18.6306 16.7922C17.9042 17.269 17.0242 17.4988 16.004 17.4988C15.2872 17.4988 14.6504 17.3887 14.0642 17.1589C13.5121 16.9413 13.0123 16.6096 12.5973 16.1855C12.2005 15.7688 11.8939 15.2652 11.677 14.6757C11.46 14.0863 11.357 13.4392 11.357 12.7391C11.357 12.0524 11.4734 11.4258 11.7038 10.8357C11.9181 10.2691 12.2422 9.75041 12.6574 9.30932C13.0805 8.87284 13.5643 8.5458 14.141 8.28916C14.7144 8.03252 15.3346 7.91924 16.0341 7.91924C16.811 7.91924 17.4773 8.0594 18.0642 8.36596C18.6218 8.64983 19.1066 9.05824 19.4811 9.55956C19.8581 10.0594 20.1211 10.636 20.2843 11.2863C20.4475 11.9263 20.4974 12.5996 20.4642 13.3164H13.901C13.901 14.0332 14.141 14.7096 14.5077 15.0764L14.4379 15.1032L14.4571 15.0789ZM5.71663 15.1218C5.98671 15.1218 6.24655 15.0949 6.48975 15.0418C6.72031 14.9965 6.94067 14.9096 7.13999 14.7852C7.31983 14.6719 7.47343 14.5048 7.58671 14.2885C7.69679 14.085 7.74671 13.8021 7.74671 13.4687C7.74671 12.8287 7.55983 12.3685 7.20015 12.0888C6.83343 11.8156 6.35663 11.6786 5.76015 11.6786H2.76367V15.1352H5.71727V15.1084L5.71663 15.1218ZM17.3301 10.302C17.0267 9.97172 16.5269 9.79508 15.9131 9.79508C15.5163 9.79508 15.1867 9.85844 14.9198 9.9986C14.6746 10.1183 14.4584 10.29 14.2862 10.5016C14.1328 10.6902 14.0194 10.9079 13.9528 11.1416C13.8933 11.3392 13.8553 11.5426 13.8395 11.7484H17.9029C17.8427 11.1084 17.6194 10.6386 17.323 10.3052V10.3154L17.3301 10.302ZM5.56367 9.77524C6.05391 9.77524 6.46031 9.66196 6.78031 9.42516C7.10031 9.1954 7.25391 8.8082 7.25391 8.28212C7.25391 7.989 7.19375 7.749 7.10031 7.56212C6.99657 7.38337 6.84984 7.23334 6.67343 7.12564C6.48289 7.01532 6.27381 6.94071 6.05647 6.90548C5.82021 6.86079 5.58011 6.83957 5.33967 6.84212H2.75663V9.77524H5.56367ZM13.3269 5.54549H18.42V6.78516H13.3269V5.53525V5.54549Z" fill="white"/>
</svg>
