<svg width="21" height="22" viewBox="0 0 21 22" fill="none" xmlns="http://www.w3.org/2000/svg">
<g clip-path="url(#clip0)">
<path d="M5.2913 18.7788H1.57611V6.8146H5.2913V18.7788ZM3.43147 5.1826C2.24363 5.1826 1.27979 4.19828 1.27979 3.01044C1.27979 2.43978 1.50648 1.8925 1.91 1.48898C2.31352 1.08546 2.8608 0.858765 3.43147 0.858765C4.00213 0.858765 4.54941 1.08546 4.95293 1.48898C5.35645 1.8925 5.58315 2.43978 5.58315 3.01044C5.58315 4.19828 4.61931 5.1826 3.43147 5.1826ZM19.1959 18.7788H15.4891V12.9548C15.4891 11.5666 15.4609 9.78676 13.5575 9.78676C11.626 9.78676 11.3297 11.2946 11.3297 12.8549V18.7788H7.61835V6.8146H11.1812V8.4466H11.2331C11.7291 7.50644 12.9406 6.51444 14.7479 6.51444C18.5079 6.51444 19.1991 8.9906 19.1991 12.2066V18.7788H19.1959Z" fill="white"/>
</g>
<defs>
<clipPath id="clip0">
<rect width="20.48" height="20.48" fill="white" transform="translate(0 0.858765)"/>
</clipPath>
</defs>
</svg>
