<svg width="21" height="22" viewBox="0 0 21 22" fill="none" xmlns="http://www.w3.org/2000/svg">
<path d="M10.24 1.1122C4.58304 1.1122 0 5.69908 0 11.3522C0 15.8789 2.93376 19.7157 6.99968 21.0693C7.5136 21.166 7.6992 20.8492 7.6992 20.5752C7.6992 20.332 7.69344 19.6888 7.6896 18.8351C4.83968 19.452 4.23936 17.4584 4.23936 17.4584C3.7728 16.2783 3.09952 15.9615 3.09952 15.9615C2.1728 15.3285 3.17312 15.342 3.17312 15.342C4.19968 15.4117 4.73984 16.3948 4.73984 16.3948C5.65312 17.9615 7.136 17.5084 7.72288 17.2447C7.81248 16.5848 8.07936 16.1311 8.36992 15.8783C6.09664 15.6216 3.70624 14.7416 3.70624 10.8178C3.70624 9.69716 4.10304 8.78452 4.75904 8.06772C4.64576 7.81108 4.29888 6.76788 4.84928 5.35732C4.84928 5.35732 5.70624 5.08404 7.66528 6.40756C8.49978 6.18059 9.36047 6.06418 10.2253 6.06132C11.0957 6.06708 11.9654 6.181 12.7853 6.40756C14.7328 5.08404 15.5891 5.35732 15.5891 5.35732C16.1389 6.76788 15.792 7.81044 15.6922 8.06772C16.3418 8.78452 16.7386 9.6978 16.7386 10.8178C16.7386 14.7506 14.345 15.6178 12.0691 15.868C12.425 16.1746 12.7584 16.805 12.7584 17.7618C12.7584 19.1314 12.7456 20.2348 12.7456 20.5682C12.7456 20.8344 12.9248 21.1544 13.4522 21.0514C17.5482 19.7119 20.4787 15.8719 20.4787 11.3516C20.4787 5.69844 15.8957 1.11156 10.2387 1.11156L10.24 1.1122Z" fill="white"/>
</svg>
