<svg width="22" height="22" viewBox="0 0 22 22" fill="none" xmlns="http://www.w3.org/2000/svg">
<path d="M21.4395 4.75829C20.673 5.09525 19.8611 5.31779 19.0299 5.41877C19.9061 4.89288 20.562 4.06731 20.8763 3.09493C20.0475 3.57557 19.1455 3.91696 18.2062 4.10549C17.5746 3.43058 16.7378 2.98301 15.8258 2.8322C14.9138 2.6814 13.9775 2.83581 13.1622 3.27146C12.347 3.70711 11.6982 4.39966 11.3167 5.24165C10.9352 6.08363 10.8423 7.02799 11.0523 7.92821C7.56237 7.76501 4.46862 6.08821 2.3995 3.55509C2.02284 4.19565 1.82585 4.92592 1.82926 5.66901C1.82874 6.3598 1.99882 7.04003 2.32438 7.64929C2.64995 8.25855 3.12093 8.77799 3.69549 9.16149C3.02965 9.14136 2.37832 8.96207 1.79598 8.63861V8.68917C1.79577 9.65878 2.13083 10.5986 2.74436 11.3495C3.35789 12.1003 4.21216 12.6159 5.16238 12.8088C4.80244 12.905 4.43158 12.9543 4.05902 12.9554C3.78958 12.9554 3.5323 12.9292 3.27566 12.8818C3.54607 13.7162 4.0699 14.4455 4.77422 14.9682C5.47854 15.491 6.32831 15.7811 7.20525 15.7983C5.71944 16.9619 3.88608 17.5931 1.99886 17.5909C1.66459 17.5922 1.33054 17.5734 0.998535 17.5346C2.92371 18.7682 5.16261 19.423 7.44909 19.4213C15.172 19.4213 19.3921 13.0245 19.3921 7.48469C19.3921 7.30805 19.3921 7.12821 19.3787 6.94773C20.2042 6.35608 20.9157 5.61969 21.4785 4.77429L21.4395 4.75829Z" fill="white"/>
</svg>
